<svg width="25" height="21" viewBox="0 0 25 21" fill="none" xmlns="http://www.w3.org/2000/svg">
<path d="M22.625 0.375H2.375C1.1375 0.375 0.125 1.3875 0.125 2.625V16.125C0.125 17.3625 1.1375 18.375 2.375 18.375H8V20.625H17V18.375H22.625C23.8625 18.375 24.875 17.3625 24.875 16.125V2.625C24.875 1.3875 23.8625 0.375 22.625 0.375ZM22.625 16.125H2.375V2.625H22.625V16.125ZM20.375 6H8V8.25H20.375V6ZM20.375 10.5H8V12.75H20.375V10.5Z" fill="#5C5A56"/>
<path d="M3.85873 6H6.5V12.75H5.5H3.85873V6Z" fill="#5C5A56"/>
</svg>
